<mxfile host="65bd71144e">
    <diagram id="M8bM3GNqxwLCmx4D9qAe" name="Page-1">
        <mxGraphModel dx="787" dy="590" grid="1" gridSize="10" guides="1" tooltips="1" connect="1" arrows="1" fold="1" page="1" pageScale="1" pageWidth="827" pageHeight="1169" math="0" shadow="0">
            <root>
                <mxCell id="0"/>
                <mxCell id="1" parent="0"/>
                <mxCell id="TjAgkeVr9mp04xHo6OXA-29" value="Drivers" style="rounded=0;whiteSpace=wrap;html=1;dashed=1;fontFamily=Helvetica;fontSize=12;align=center;horizontal=1;verticalAlign=top;" parent="1" vertex="1">
                    <mxGeometry x="100" y="330" width="580" height="90" as="geometry"/>
                </mxCell>
                <mxCell id="TjAgkeVr9mp04xHo6OXA-17" style="edgeStyle=orthogonalEdgeStyle;rounded=0;orthogonalLoop=1;jettySize=auto;html=1;fontFamily=Helvetica;fontSize=12;fontColor=default;exitX=0.111;exitY=1;exitDx=0;exitDy=0;endArrow=blockThin;endFill=1;exitPerimeter=0;" parent="1" source="TjAgkeVr9mp04xHo6OXA-5" target="TjAgkeVr9mp04xHo6OXA-6" edge="1">
                    <mxGeometry relative="1" as="geometry">
                        <mxPoint x="310" y="190" as="sourcePoint"/>
                    </mxGeometry>
                </mxCell>
                <mxCell id="TjAgkeVr9mp04xHo6OXA-18" style="edgeStyle=orthogonalEdgeStyle;rounded=0;orthogonalLoop=1;jettySize=auto;html=1;entryX=0.5;entryY=0;entryDx=0;entryDy=0;fontFamily=Helvetica;fontSize=12;fontColor=default;exitX=0.5;exitY=1;exitDx=0;exitDy=0;" parent="1" source="TjAgkeVr9mp04xHo6OXA-5" target="TjAgkeVr9mp04xHo6OXA-7" edge="1">
                    <mxGeometry relative="1" as="geometry"/>
                </mxCell>
                <mxCell id="TjAgkeVr9mp04xHo6OXA-21" style="edgeStyle=orthogonalEdgeStyle;rounded=0;orthogonalLoop=1;jettySize=auto;html=1;entryX=0.5;entryY=0;entryDx=0;entryDy=0;fontFamily=Helvetica;fontSize=12;fontColor=default;endArrow=blockThin;endFill=1;exitX=0.75;exitY=1;exitDx=0;exitDy=0;" parent="1" source="TjAgkeVr9mp04xHo6OXA-5" target="TjAgkeVr9mp04xHo6OXA-20" edge="1">
                    <mxGeometry relative="1" as="geometry"/>
                </mxCell>
                <mxCell id="TjAgkeVr9mp04xHo6OXA-5" value="App" style="rounded=0;whiteSpace=wrap;html=1;" parent="1" vertex="1">
                    <mxGeometry x="120" y="150" width="540" height="40" as="geometry"/>
                </mxCell>
                <mxCell id="TjAgkeVr9mp04xHo6OXA-23" style="edgeStyle=orthogonalEdgeStyle;rounded=0;orthogonalLoop=1;jettySize=auto;html=1;entryX=0.5;entryY=0;entryDx=0;entryDy=0;fontFamily=Helvetica;fontSize=12;fontColor=default;endArrow=blockThin;endFill=1;" parent="1" source="TjAgkeVr9mp04xHo6OXA-6" target="TjAgkeVr9mp04xHo6OXA-13" edge="1">
                    <mxGeometry relative="1" as="geometry"/>
                </mxCell>
                <mxCell id="TjAgkeVr9mp04xHo6OXA-6" value="CLI" style="rounded=0;whiteSpace=wrap;html=1;" parent="1" vertex="1">
                    <mxGeometry x="120" y="240" width="120" height="40" as="geometry"/>
                </mxCell>
                <mxCell id="TjAgkeVr9mp04xHo6OXA-24" style="edgeStyle=orthogonalEdgeStyle;rounded=0;orthogonalLoop=1;jettySize=auto;html=1;entryX=0.5;entryY=0;entryDx=0;entryDy=0;fontFamily=Helvetica;fontSize=12;fontColor=default;endArrow=blockThin;endFill=1;exitX=0.25;exitY=1;exitDx=0;exitDy=0;" parent="1" source="TjAgkeVr9mp04xHo6OXA-7" target="TjAgkeVr9mp04xHo6OXA-14" edge="1">
                    <mxGeometry relative="1" as="geometry">
                        <mxPoint x="399" y="390.00000000000006" as="sourcePoint"/>
                        <mxPoint x="427.5" y="470" as="targetPoint"/>
                    </mxGeometry>
                </mxCell>
                <mxCell id="TjAgkeVr9mp04xHo6OXA-25" style="edgeStyle=orthogonalEdgeStyle;rounded=0;orthogonalLoop=1;jettySize=auto;html=1;entryX=0.5;entryY=0;entryDx=0;entryDy=0;fontFamily=Helvetica;fontSize=12;fontColor=default;endArrow=blockThin;endFill=1;exitX=0.5;exitY=1;exitDx=0;exitDy=0;" parent="1" source="TjAgkeVr9mp04xHo6OXA-7" target="TjAgkeVr9mp04xHo6OXA-15" edge="1">
                    <mxGeometry relative="1" as="geometry">
                        <mxPoint x="320" y="290" as="sourcePoint"/>
                    </mxGeometry>
                </mxCell>
                <mxCell id="TjAgkeVr9mp04xHo6OXA-26" style="edgeStyle=orthogonalEdgeStyle;rounded=0;orthogonalLoop=1;jettySize=auto;html=1;entryX=0.5;entryY=0;entryDx=0;entryDy=0;fontFamily=Helvetica;fontSize=12;fontColor=default;endArrow=blockThin;endFill=1;exitX=0.75;exitY=1;exitDx=0;exitDy=0;exitPerimeter=0;" parent="1" source="TjAgkeVr9mp04xHo6OXA-7" target="TjAgkeVr9mp04xHo6OXA-16" edge="1">
                    <mxGeometry relative="1" as="geometry">
                        <Array as="points">
                            <mxPoint x="420" y="310"/>
                            <mxPoint x="600" y="310"/>
                        </Array>
                    </mxGeometry>
                </mxCell>
                <mxCell id="TjAgkeVr9mp04xHo6OXA-7" value="Mnt&lt;br&gt;(Measurement)" style="rounded=0;whiteSpace=wrap;html=1;" parent="1" vertex="1">
                    <mxGeometry x="330" y="240" width="120" height="40" as="geometry"/>
                </mxCell>
                <mxCell id="TjAgkeVr9mp04xHo6OXA-13" value="UART Driver" style="rounded=0;whiteSpace=wrap;html=1;fontFamily=Helvetica;fontSize=12;fontColor=default;strokeColor=default;fillColor=default;dashed=1;" parent="1" vertex="1">
                    <mxGeometry x="120" y="360" width="120" height="40" as="geometry"/>
                </mxCell>
                <mxCell id="TjAgkeVr9mp04xHo6OXA-14" value="DAC Driver" style="rounded=0;whiteSpace=wrap;html=1;fontFamily=Helvetica;fontSize=12;fontColor=default;strokeColor=default;fillColor=default;dashed=1;" parent="1" vertex="1">
                    <mxGeometry x="260" y="360" width="120" height="40" as="geometry"/>
                </mxCell>
                <mxCell id="TjAgkeVr9mp04xHo6OXA-15" value="ADC Driver" style="rounded=0;whiteSpace=wrap;html=1;fontFamily=Helvetica;fontSize=12;fontColor=default;strokeColor=default;fillColor=default;dashed=1;" parent="1" vertex="1">
                    <mxGeometry x="400" y="360" width="120" height="40" as="geometry"/>
                </mxCell>
                <mxCell id="TjAgkeVr9mp04xHo6OXA-16" value="GPIO Driver" style="rounded=0;whiteSpace=wrap;html=1;fontFamily=Helvetica;fontSize=12;fontColor=default;strokeColor=default;fillColor=default;dashed=1;" parent="1" vertex="1">
                    <mxGeometry x="540" y="360" width="120" height="40" as="geometry"/>
                </mxCell>
                <mxCell id="TjAgkeVr9mp04xHo6OXA-20" value="Analyzer Service&amp;nbsp;" style="rounded=0;whiteSpace=wrap;html=1;" parent="1" vertex="1">
                    <mxGeometry x="540" y="240" width="120" height="40" as="geometry"/>
                </mxCell>
                <mxCell id="TjAgkeVr9mp04xHo6OXA-34" value="Mock Driver (for local test)&amp;nbsp;" style="rounded=0;whiteSpace=wrap;html=1;dashed=1;fontFamily=Helvetica;fontSize=12;align=center;horizontal=1;verticalAlign=middle;" parent="1" vertex="1">
                    <mxGeometry x="100" y="470" width="580" height="40" as="geometry"/>
                </mxCell>
                <mxCell id="TjAgkeVr9mp04xHo6OXA-36" value="" style="shape=flexArrow;endArrow=classic;startArrow=classic;html=1;rounded=0;fontFamily=Helvetica;fontSize=12;fontColor=default;exitX=0.5;exitY=0;exitDx=0;exitDy=0;entryX=0.5;entryY=1;entryDx=0;entryDy=0;" parent="1" source="TjAgkeVr9mp04xHo6OXA-34" target="TjAgkeVr9mp04xHo6OXA-29" edge="1">
                    <mxGeometry width="100" height="100" relative="1" as="geometry">
                        <mxPoint x="460" y="350" as="sourcePoint"/>
                        <mxPoint x="560" y="250" as="targetPoint"/>
                        <Array as="points"/>
                    </mxGeometry>
                </mxCell>
            </root>
        </mxGraphModel>
    </diagram>
</mxfile>